<svg width="46" height="46" viewBox="0 0 46 46" fill="none" xmlns="http://www.w3.org/2000/svg">
<path fill-rule="evenodd" clip-rule="evenodd" d="M17.2921 0.862793H30.9305C33.9819 0.862793 36.4439 0.862793 38.3792 1.10654C40.3881 1.35654 42.0801 1.89821 43.4238 3.15029C44.7676 4.40446 45.3435 5.98362 45.6158 7.85862C45.8747 9.66487 45.8747 11.9628 45.8747 14.8107V31.7065C45.8747 34.5545 45.8747 36.8524 45.6158 38.6586C45.3435 40.5336 44.7676 42.1128 43.4238 43.367C42.0801 44.6211 40.3881 45.1586 38.3792 45.4128C36.4439 45.6544 33.9819 45.6544 30.9305 45.6544H17.2921L15.2854 45.6524C15.2111 45.6568 15.1366 45.6568 15.0622 45.6524C13.0131 45.6378 11.2832 45.5919 9.84348 45.4128C7.83455 45.1586 6.14259 44.6211 4.79884 43.367C3.45509 42.1128 2.8792 40.5336 2.60911 38.6586C2.39259 37.169 2.35687 35.3461 2.35018 33.1544H1.78991C1.34591 33.1544 0.920094 32.9898 0.606138 32.6968C0.292181 32.4038 0.115803 32.0064 0.115803 31.592C0.115803 31.1776 0.292181 30.7801 0.606138 30.4871C0.920094 30.1941 1.34591 30.0295 1.78991 30.0295H2.34795V24.8211H1.78991C1.34591 24.8211 0.920094 24.6565 0.606138 24.3635C0.292181 24.0704 0.115803 23.673 0.115803 23.2586C0.115803 22.8442 0.292181 22.4468 0.606138 22.1538C0.920094 21.8607 1.34591 21.6961 1.78991 21.6961H2.34795V16.4878H1.78991C1.34591 16.4878 0.920094 16.3232 0.606138 16.0301C0.292181 15.7371 0.115803 15.3397 0.115803 14.9253C0.115803 14.5109 0.292181 14.1135 0.606138 13.8204C0.920094 13.5274 1.34591 13.3628 1.78991 13.3628H2.34795C2.35687 11.1711 2.39259 9.34821 2.60911 7.85862C2.87696 5.98362 3.45732 4.40446 4.79884 3.15029C6.14259 1.89613 7.83455 1.35863 9.84348 1.10654C11.7788 0.862793 14.2408 0.862793 17.2921 0.862793ZM5.69616 16.4878H6.2542C6.6982 16.4878 7.12401 16.3232 7.43797 16.0301C7.75193 15.7371 7.9283 15.3397 7.9283 14.9253C7.9283 14.5109 7.75193 14.1135 7.43797 13.8204C7.12401 13.5274 6.6982 13.3628 6.2542 13.3628H5.69616C5.70509 11.1836 5.7408 9.55862 5.92607 8.27529C6.14705 6.74612 6.55107 5.93779 7.16714 5.36071C7.78545 4.78363 8.65152 4.40863 10.2921 4.20238C11.185 4.08988 12.2386 4.03571 13.5087 4.01071V42.5086C12.4328 42.4995 11.3583 42.4355 10.2899 42.317C8.65152 42.1107 7.78545 41.7336 7.16714 41.1586C6.54884 40.5815 6.14705 39.7732 5.92607 38.2419C5.7408 36.9607 5.70509 35.3357 5.69839 33.1565H6.2542C6.6982 33.1565 7.12401 32.9919 7.43797 32.6989C7.75193 32.4059 7.9283 32.0084 7.9283 31.594C7.9283 31.1796 7.75193 30.7822 7.43797 30.4892C7.12401 30.1962 6.6982 30.0315 6.2542 30.0315H5.69616V24.8232H6.2542C6.6982 24.8232 7.12401 24.6586 7.43797 24.3656C7.75193 24.0725 7.9283 23.6751 7.9283 23.2607C7.9283 22.8463 7.75193 22.4489 7.43797 22.1558C7.12401 21.8628 6.6982 21.6982 6.2542 21.6982H5.69616V16.4878ZM16.8569 42.5294H30.8078C34.0109 42.5294 36.2453 42.5253 37.9328 42.3149C39.5712 42.1086 40.4372 41.7315 41.0555 41.1565C41.6738 40.5794 42.0756 39.7711 42.2966 38.2399C42.5221 36.667 42.5265 34.5815 42.5265 31.592V14.9253C42.5265 11.9357 42.5221 9.84821 42.2966 8.27529C42.0756 6.74612 41.6716 5.93779 41.0555 5.36071C40.4372 4.78363 39.5712 4.40863 37.9305 4.20238C36.2453 3.99196 34.0109 3.98779 30.8078 3.98779H16.8569V42.5294ZM21.3212 11.8003C21.3212 11.3859 21.4975 10.9885 21.8115 10.6954C22.1255 10.4024 22.5513 10.2378 22.9953 10.2378H34.156C34.6 10.2378 35.0258 10.4024 35.3398 10.6954C35.6537 10.9885 35.8301 11.3859 35.8301 11.8003C35.8301 12.2147 35.6537 12.6121 35.3398 12.9051C35.0258 13.1982 34.6 13.3628 34.156 13.3628H22.9953C22.5513 13.3628 22.1255 13.1982 21.8115 12.9051C21.4975 12.6121 21.3212 12.2147 21.3212 11.8003ZM21.3212 19.092C21.3212 18.6776 21.4975 18.2801 21.8115 17.9871C22.1255 17.6941 22.5513 17.5295 22.9953 17.5295H34.156C34.6 17.5295 35.0258 17.6941 35.3398 17.9871C35.6537 18.2801 35.8301 18.6776 35.8301 19.092C35.8301 19.5064 35.6537 19.9038 35.3398 20.1968C35.0258 20.4898 34.6 20.6545 34.156 20.6545H22.9953C22.5513 20.6545 22.1255 20.4898 21.8115 20.1968C21.4975 19.9038 21.3212 19.5064 21.3212 19.092Z" fill="black"/>
</svg>