<svg width="46" height="46" viewBox="0 0 46 46" fill="none" xmlns="http://www.w3.org/2000/svg">
<path fill-rule="evenodd" clip-rule="evenodd" d="M17.2921 0.741455H30.9305C33.9819 0.741455 36.4439 0.741455 38.3792 0.985205C40.3881 1.2352 42.0801 1.77687 43.4238 3.02895C44.7676 4.28312 45.3435 5.86229 45.6158 7.73729C45.8747 9.54354 45.8747 11.8415 45.8747 14.6894V31.5852C45.8747 34.4331 45.8747 36.731 45.6158 38.5373C45.3435 40.4123 44.7676 41.9914 43.4238 43.2456C42.0801 44.4998 40.3881 45.0373 38.3792 45.2914C36.4439 45.5331 33.9819 45.5331 30.9305 45.5331H17.2921L15.2854 45.531C15.2111 45.5355 15.1366 45.5355 15.0622 45.531C13.0131 45.5164 11.2832 45.4706 9.84348 45.2914C7.83455 45.0373 6.14259 44.4998 4.79884 43.2456C3.45509 41.9914 2.8792 40.4123 2.60911 38.5373C2.39259 37.0477 2.35687 35.2248 2.35018 33.0331H1.78991C1.34591 33.0331 0.920094 32.8685 0.606138 32.5755C0.292181 32.2824 0.115803 31.885 0.115803 31.4706C0.115803 31.0562 0.292181 30.6588 0.606138 30.3658C0.920094 30.0727 1.34591 29.9081 1.78991 29.9081H2.34795V24.6998H1.78991C1.34591 24.6998 0.920094 24.5352 0.606138 24.2421C0.292181 23.9491 0.115803 23.5517 0.115803 23.1373C0.115803 22.7229 0.292181 22.3255 0.606138 22.0324C0.920094 21.7394 1.34591 21.5748 1.78991 21.5748H2.34795V16.3665H1.78991C1.34591 16.3665 0.920094 16.2018 0.606138 15.9088C0.292181 15.6158 0.115803 15.2184 0.115803 14.804C0.115803 14.3896 0.292181 13.9921 0.606138 13.6991C0.920094 13.4061 1.34591 13.2415 1.78991 13.2415H2.34795C2.35687 11.0498 2.39259 9.22687 2.60911 7.73729C2.87696 5.86229 3.45732 4.28312 4.79884 3.02895C6.14259 1.77479 7.83455 1.23729 9.84348 0.985205C11.7788 0.741455 14.2408 0.741455 17.2921 0.741455ZM5.69616 16.3665H6.2542C6.6982 16.3665 7.12401 16.2018 7.43797 15.9088C7.75193 15.6158 7.9283 15.2184 7.9283 14.804C7.9283 14.3896 7.75193 13.9921 7.43797 13.6991C7.12401 13.4061 6.6982 13.2415 6.2542 13.2415H5.69616C5.70509 11.0623 5.7408 9.43729 5.92607 8.15395C6.14705 6.62479 6.55107 5.81645 7.16714 5.23937C7.78545 4.66229 8.65152 4.28729 10.2921 4.08104C11.185 3.96854 12.2386 3.91437 13.5087 3.88937V42.3873C12.4328 42.3782 11.3583 42.3142 10.2899 42.1956C8.65152 41.9894 7.78545 41.6123 7.16714 41.0373C6.54884 40.4602 6.14705 39.6519 5.92607 38.1206C5.7408 36.8394 5.70509 35.2144 5.69839 33.0352H6.2542C6.6982 33.0352 7.12401 32.8706 7.43797 32.5776C7.75193 32.2845 7.9283 31.8871 7.9283 31.4727C7.9283 31.0583 7.75193 30.6609 7.43797 30.3678C7.12401 30.0748 6.6982 29.9102 6.2542 29.9102H5.69616V24.7019H6.2542C6.6982 24.7019 7.12401 24.5372 7.43797 24.2442C7.75193 23.9512 7.9283 23.5538 7.9283 23.1394C7.9283 22.725 7.75193 22.3275 7.43797 22.0345C7.12401 21.7415 6.6982 21.5769 6.2542 21.5769H5.69616V16.3665ZM16.8569 42.4081H30.8078C34.0109 42.4081 36.2453 42.4039 37.9328 42.1935C39.5712 41.9873 40.4372 41.6102 41.0555 41.0352C41.6738 40.4581 42.0756 39.6498 42.2966 38.1185C42.5221 36.5456 42.5265 34.4602 42.5265 31.4706V14.804C42.5265 11.8144 42.5221 9.72687 42.2966 8.15395C42.0756 6.62479 41.6716 5.81645 41.0555 5.23937C40.4372 4.66229 39.5712 4.28729 37.9305 4.08104C36.2453 3.87062 34.0109 3.86645 30.8078 3.86645H16.8569V42.4081ZM21.3212 11.679C21.3212 11.2646 21.4975 10.8671 21.8115 10.5741C22.1255 10.2811 22.5513 10.1165 22.9953 10.1165H34.156C34.6 10.1165 35.0258 10.2811 35.3398 10.5741C35.6537 10.8671 35.8301 11.2646 35.8301 11.679C35.8301 12.0934 35.6537 12.4908 35.3398 12.7838C35.0258 13.0768 34.6 13.2415 34.156 13.2415H22.9953C22.5513 13.2415 22.1255 13.0768 21.8115 12.7838C21.4975 12.4908 21.3212 12.0934 21.3212 11.679ZM21.3212 18.9706C21.3212 18.5562 21.4975 18.1588 21.8115 17.8658C22.1255 17.5727 22.5513 17.4081 22.9953 17.4081H34.156C34.6 17.4081 35.0258 17.5727 35.3398 17.8658C35.6537 18.1588 35.8301 18.5562 35.8301 18.9706C35.8301 19.385 35.6537 19.7824 35.3398 20.0755C35.0258 20.3685 34.6 20.5331 34.156 20.5331H22.9953C22.5513 20.5331 22.1255 20.3685 21.8115 20.0755C21.4975 19.7824 21.3212 19.385 21.3212 18.9706Z" fill="black"/>
</svg>
