<svg width="226" height="54" viewBox="0 0 226 54" fill="none" xmlns="http://www.w3.org/2000/svg">
<path fill-rule="evenodd" clip-rule="evenodd" d="M21.006 28.1927C22.4788 27.5311 24.2429 28.1728 24.9464 29.6261L34.3107 48.9727C35.0141 50.426 34.3904 52.1404 32.9176 52.8021C31.4448 53.4637 29.6806 52.8219 28.9772 51.3686L19.6129 32.0221C18.9095 30.5688 19.5331 28.8543 21.006 28.1927Z" fill="black"/>
<path fill-rule="evenodd" clip-rule="evenodd" d="M21.006 28.1927C22.4788 27.5311 24.2429 28.1728 24.9464 29.6261L34.3107 48.9727C35.0141 50.426 34.3904 52.1404 32.9176 52.8021C31.4448 53.4637 29.6806 52.8219 28.9772 51.3686L19.6129 32.0221C18.9095 30.5688 19.5331 28.8543 21.006 28.1927Z" fill="url(#paint0_linear_0_1)" fill-opacity="0.35"/>
<path d="M0.584377 4.33647C0.584377 1.94164 2.52577 0.000252648 4.92059 0.000252648C5.77588 0.000252648 6.46924 0.693605 6.46924 1.5489V51.5649C6.46924 52.4202 5.77588 53.1135 4.92059 53.1135C2.52577 53.1135 0.584377 51.1721 0.584377 48.7773V4.33647Z" fill="black"/>
<path d="M0.584377 4.33647C0.584377 1.94164 2.52577 0.000252648 4.92059 0.000252648C5.77588 0.000252648 6.46924 0.693605 6.46924 1.5489V51.5649C6.46924 52.4202 5.77588 53.1135 4.92059 53.1135C2.52577 53.1135 0.584377 51.1721 0.584377 48.7773V4.33647Z" fill="url(#paint1_linear_0_1)" fill-opacity="0.35"/>
<path d="M8.94774 6.66492C8.94774 2.98398 11.9317 0 15.6127 0H22.2721C29.1112 0 34.6553 5.54413 34.6553 12.3832C34.6553 19.2222 29.1112 24.7663 22.2721 24.7663H15.6127C11.9317 24.7663 8.94774 21.7823 8.94774 18.1014V6.66492Z" fill="#E60B0B"/>
<path d="M8.94774 6.66492C8.94774 2.98398 11.9317 0 15.6127 0H22.2721C29.1112 0 34.6553 5.54413 34.6553 12.3832C34.6553 19.2222 29.1112 24.7663 22.2721 24.7663H15.6127C11.9317 24.7663 8.94774 21.7823 8.94774 18.1014V6.66492Z" fill="url(#paint2_linear_0_1)" fill-opacity="0.35"/>
<path d="M46.7727 39.3636C45.0909 39.3636 43.6402 38.9924 42.4205 38.25C41.2083 37.5 40.2727 36.4545 39.6136 35.1136C38.9621 33.7652 38.6364 32.197 38.6364 30.4091C38.6364 28.6212 38.9621 27.0455 39.6136 25.6818C40.2727 24.3106 41.1894 23.2424 42.3636 22.4773C43.5455 21.7045 44.9242 21.3182 46.5 21.3182C47.4091 21.3182 48.3068 21.4697 49.1932 21.7727C50.0795 22.0758 50.8864 22.5682 51.6136 23.25C52.3409 23.9242 52.9205 24.8182 53.3523 25.9318C53.7841 27.0455 54 28.4167 54 30.0455V31.1818H40.5455V28.8636H51.2727C51.2727 27.8788 51.0758 27 50.6818 26.2273C50.2955 25.4545 49.7424 24.8447 49.0227 24.3977C48.3106 23.9508 47.4697 23.7273 46.5 23.7273C45.4318 23.7273 44.5076 23.9924 43.7273 24.5227C42.9545 25.0455 42.3598 25.7273 41.9432 26.5682C41.5265 27.4091 41.3182 28.3106 41.3182 29.2727V30.8182C41.3182 32.1364 41.5455 33.2538 42 34.1705C42.4621 35.0795 43.1023 35.7727 43.9205 36.25C44.7386 36.7197 45.6894 36.9545 46.7727 36.9545C47.4773 36.9545 48.1136 36.8561 48.6818 36.6591C49.2576 36.4545 49.7538 36.1515 50.1705 35.75C50.5871 35.3409 50.9091 34.8333 51.1364 34.2273L53.7273 34.9545C53.4545 35.8333 52.9962 36.6061 52.3523 37.2727C51.7083 37.9318 50.9129 38.447 49.9659 38.8182C49.0189 39.1818 47.9545 39.3636 46.7727 39.3636ZM60.7614 28.5V39H58.0795V21.5455H60.6705V24.2727H60.8977C61.3068 23.3864 61.928 22.6742 62.7614 22.1364C63.5947 21.5909 64.6705 21.3182 65.9886 21.3182C67.1705 21.3182 68.2045 21.5606 69.0909 22.0455C69.9773 22.5227 70.6667 23.25 71.1591 24.2273C71.6515 25.197 71.8977 26.4242 71.8977 27.9091V39H69.2159V28.0909C69.2159 26.7197 68.8598 25.6515 68.1477 24.8864C67.4356 24.1136 66.4583 23.7273 65.2159 23.7273C64.3598 23.7273 63.5947 23.9129 62.9205 24.2841C62.2538 24.6553 61.7273 25.197 61.3409 25.9091C60.9545 26.6212 60.7614 27.4848 60.7614 28.5ZM84.3892 21.5455V23.8182H75.3438V21.5455H84.3892ZM77.9801 17.3636H80.6619V34C80.6619 34.7576 80.7718 35.3258 80.9915 35.7045C81.2188 36.0758 81.5066 36.3258 81.8551 36.4545C82.2112 36.5758 82.5862 36.6364 82.9801 36.6364C83.2756 36.6364 83.518 36.6212 83.7074 36.5909C83.8968 36.553 84.0483 36.5227 84.1619 36.5L84.7074 38.9091C84.5256 38.9773 84.2718 39.0455 83.946 39.1136C83.6203 39.1894 83.2074 39.2273 82.7074 39.2273C81.9498 39.2273 81.2074 39.0644 80.4801 38.7386C79.7604 38.4129 79.1619 37.9167 78.6847 37.25C78.215 36.5833 77.9801 35.7424 77.9801 34.7273V17.3636ZM102.56 39.4091C101.454 39.4091 100.45 39.2008 99.5483 38.7841C98.6468 38.3598 97.9309 37.75 97.4006 36.9545C96.8703 36.1515 96.6051 35.1818 96.6051 34.0455C96.6051 33.0455 96.8021 32.2348 97.196 31.6136C97.59 30.9848 98.1165 30.4924 98.7756 30.1364C99.4347 29.7803 100.162 29.5152 100.957 29.3409C101.76 29.1591 102.567 29.0152 103.378 28.9091C104.438 28.7727 105.298 28.6705 105.957 28.6023C106.624 28.5265 107.109 28.4015 107.412 28.2273C107.723 28.053 107.878 27.75 107.878 27.3182V27.2273C107.878 26.1061 107.571 25.2348 106.957 24.6136C106.351 23.9924 105.431 23.6818 104.196 23.6818C102.916 23.6818 101.912 23.9621 101.185 24.5227C100.457 25.0833 99.946 25.6818 99.6506 26.3182L97.1051 25.4091C97.5597 24.3485 98.1657 23.5227 98.9233 22.9318C99.6884 22.3333 100.522 21.9167 101.423 21.6818C102.332 21.4394 103.226 21.3182 104.105 21.3182C104.666 21.3182 105.31 21.3864 106.037 21.5227C106.772 21.6515 107.48 21.9205 108.162 22.3295C108.851 22.7386 109.423 23.3561 109.878 24.1818C110.332 25.0076 110.56 26.1136 110.56 27.5V39H107.878V36.6364H107.741C107.56 37.0152 107.257 37.4205 106.832 37.8523C106.408 38.2841 105.844 38.6515 105.139 38.9545C104.435 39.2576 103.575 39.4091 102.56 39.4091ZM102.969 37C104.029 37 104.923 36.7917 105.651 36.375C106.385 35.9583 106.938 35.4205 107.31 34.7614C107.688 34.1023 107.878 33.4091 107.878 32.6818V30.2273C107.764 30.3636 107.514 30.4886 107.128 30.6023C106.749 30.7083 106.31 30.803 105.81 30.8864C105.317 30.9621 104.836 31.0303 104.366 31.0909C103.904 31.1439 103.529 31.1894 103.241 31.2273C102.545 31.3182 101.893 31.4659 101.287 31.6705C100.688 31.8674 100.204 32.1667 99.8324 32.5682C99.4688 32.9621 99.2869 33.5 99.2869 34.1818C99.2869 35.1136 99.6316 35.8182 100.321 36.2955C101.018 36.7652 101.901 37 102.969 37ZM118.136 28.5V39H115.455V21.5455H118.045V24.2727H118.273C118.682 23.3864 119.303 22.6742 120.136 22.1364C120.97 21.5909 122.045 21.3182 123.364 21.3182C124.545 21.3182 125.58 21.5606 126.466 22.0455C127.352 22.5227 128.042 23.25 128.534 24.2273C129.027 25.197 129.273 26.4242 129.273 27.9091V39H126.591V28.0909C126.591 26.7197 126.235 25.6515 125.523 24.8864C124.811 24.1136 123.833 23.7273 122.591 23.7273C121.735 23.7273 120.97 23.9129 120.295 24.2841C119.629 24.6553 119.102 25.197 118.716 25.9091C118.33 26.6212 118.136 27.4848 118.136 28.5ZM140.764 39.3636C139.31 39.3636 138.026 38.9962 136.912 38.2614C135.798 37.5189 134.927 36.4735 134.298 35.125C133.67 33.7689 133.355 32.1667 133.355 30.3182C133.355 28.4848 133.67 26.8939 134.298 25.5455C134.927 24.197 135.802 23.1553 136.923 22.4205C138.045 21.6856 139.34 21.3182 140.81 21.3182C141.946 21.3182 142.844 21.5076 143.503 21.8864C144.17 22.2576 144.677 22.6818 145.026 23.1591C145.382 23.6288 145.658 24.0152 145.855 24.3182H146.082V15.7273H148.764V39H146.173V36.3182H145.855C145.658 36.6364 145.378 37.0379 145.014 37.5227C144.651 38 144.132 38.428 143.457 38.8068C142.783 39.178 141.885 39.3636 140.764 39.3636ZM141.128 36.9545C142.204 36.9545 143.113 36.6742 143.855 36.1136C144.598 35.5455 145.162 34.7614 145.548 33.7614C145.935 32.7538 146.128 31.5909 146.128 30.2727C146.128 28.9697 145.938 27.8295 145.56 26.8523C145.181 25.8674 144.62 25.1023 143.878 24.5568C143.135 24.0038 142.219 23.7273 141.128 23.7273C139.991 23.7273 139.045 24.0189 138.287 24.6023C137.537 25.178 136.973 25.9621 136.594 26.9545C136.223 27.9394 136.037 29.0455 136.037 30.2727C136.037 31.5152 136.226 32.6439 136.605 33.6591C136.991 34.6667 137.56 35.4697 138.31 36.0682C139.067 36.6591 140.007 36.9545 141.128 36.9545ZM163.412 39V15.7273H171.276C173.094 15.7273 174.586 16.0379 175.753 16.6591C176.92 17.2727 177.783 18.1174 178.344 19.1932C178.904 20.2689 179.185 21.4924 179.185 22.8636C179.185 24.2348 178.904 25.4508 178.344 26.5114C177.783 27.572 176.923 28.4053 175.764 29.0114C174.605 29.6098 173.124 29.9091 171.321 29.9091H164.957V27.3636H171.23C172.473 27.3636 173.473 27.1818 174.23 26.8182C174.995 26.4545 175.548 25.9394 175.889 25.2727C176.238 24.5985 176.412 23.7955 176.412 22.8636C176.412 21.9318 176.238 21.1174 175.889 20.4205C175.541 19.7235 174.984 19.1856 174.219 18.8068C173.454 18.4205 172.442 18.2273 171.185 18.2273H166.23V39H163.412ZM174.366 28.5455L180.094 39H176.821L171.185 28.5455H174.366ZM183.517 39V21.5455H186.199V39H183.517ZM184.881 18.6364C184.358 18.6364 183.907 18.4583 183.528 18.1023C183.157 17.7462 182.972 17.3182 182.972 16.8182C182.972 16.3182 183.157 15.8902 183.528 15.5341C183.907 15.178 184.358 15 184.881 15C185.403 15 185.85 15.178 186.222 15.5341C186.6 15.8902 186.79 16.3182 186.79 16.8182C186.79 17.3182 186.6 17.7462 186.222 18.1023C185.85 18.4583 185.403 18.6364 184.881 18.6364ZM197.702 39.3636C196.247 39.3636 194.963 38.9962 193.849 38.2614C192.736 37.5189 191.865 36.4735 191.236 35.125C190.607 33.7689 190.293 32.1667 190.293 30.3182C190.293 28.4848 190.607 26.8939 191.236 25.5455C191.865 24.197 192.74 23.1553 193.861 22.4205C194.982 21.6856 196.277 21.3182 197.747 21.3182C198.884 21.3182 199.781 21.5076 200.44 21.8864C201.107 22.2576 201.615 22.6818 201.963 23.1591C202.319 23.6288 202.596 24.0152 202.793 24.3182H203.02V15.7273H205.702V39H203.111V36.3182H202.793C202.596 36.6364 202.315 37.0379 201.952 37.5227C201.588 38 201.069 38.428 200.395 38.8068C199.721 39.178 198.823 39.3636 197.702 39.3636ZM198.065 36.9545C199.141 36.9545 200.05 36.6742 200.793 36.1136C201.535 35.5455 202.099 34.7614 202.486 33.7614C202.872 32.7538 203.065 31.5909 203.065 30.2727C203.065 28.9697 202.876 27.8295 202.497 26.8523C202.118 25.8674 201.558 25.1023 200.815 24.5568C200.073 24.0038 199.156 23.7273 198.065 23.7273C196.929 23.7273 195.982 24.0189 195.224 24.6023C194.474 25.178 193.91 25.9621 193.531 26.9545C193.16 27.9394 192.974 29.0455 192.974 30.2727C192.974 31.5152 193.164 32.6439 193.543 33.6591C193.929 34.6667 194.497 35.4697 195.247 36.0682C196.005 36.6591 196.944 36.9545 198.065 36.9545ZM218.304 39.3636C216.622 39.3636 215.171 38.9924 213.952 38.25C212.74 37.5 211.804 36.4545 211.145 35.1136C210.493 33.7652 210.168 32.197 210.168 30.4091C210.168 28.6212 210.493 27.0455 211.145 25.6818C211.804 24.3106 212.721 23.2424 213.895 22.4773C215.077 21.7045 216.455 21.3182 218.031 21.3182C218.94 21.3182 219.838 21.4697 220.724 21.7727C221.611 22.0758 222.418 22.5682 223.145 23.25C223.872 23.9242 224.452 24.8182 224.884 25.9318C225.315 27.0455 225.531 28.4167 225.531 30.0455V31.1818H212.077V28.8636H222.804C222.804 27.8788 222.607 27 222.213 26.2273C221.827 25.4545 221.274 24.8447 220.554 24.3977C219.842 23.9508 219.001 23.7273 218.031 23.7273C216.963 23.7273 216.039 23.9924 215.259 24.5227C214.486 25.0455 213.891 25.7273 213.474 26.5682C213.058 27.4091 212.849 28.3106 212.849 29.2727V30.8182C212.849 32.1364 213.077 33.2538 213.531 34.1705C213.993 35.0795 214.634 35.7727 215.452 36.25C216.27 36.7197 217.221 36.9545 218.304 36.9545C219.009 36.9545 219.645 36.8561 220.213 36.6591C220.789 36.4545 221.285 36.1515 221.702 35.75C222.118 35.3409 222.44 34.8333 222.668 34.2273L225.259 34.9545C224.986 35.8333 224.527 36.6061 223.884 37.2727C223.24 37.9318 222.444 38.447 221.497 38.8182C220.55 39.1818 219.486 39.3636 218.304 39.3636Z" fill="black"/>
<path d="M46.7727 39.3636C45.0909 39.3636 43.6402 38.9924 42.4205 38.25C41.2083 37.5 40.2727 36.4545 39.6136 35.1136C38.9621 33.7652 38.6364 32.197 38.6364 30.4091C38.6364 28.6212 38.9621 27.0455 39.6136 25.6818C40.2727 24.3106 41.1894 23.2424 42.3636 22.4773C43.5455 21.7045 44.9242 21.3182 46.5 21.3182C47.4091 21.3182 48.3068 21.4697 49.1932 21.7727C50.0795 22.0758 50.8864 22.5682 51.6136 23.25C52.3409 23.9242 52.9205 24.8182 53.3523 25.9318C53.7841 27.0455 54 28.4167 54 30.0455V31.1818H40.5455V28.8636H51.2727C51.2727 27.8788 51.0758 27 50.6818 26.2273C50.2955 25.4545 49.7424 24.8447 49.0227 24.3977C48.3106 23.9508 47.4697 23.7273 46.5 23.7273C45.4318 23.7273 44.5076 23.9924 43.7273 24.5227C42.9545 25.0455 42.3598 25.7273 41.9432 26.5682C41.5265 27.4091 41.3182 28.3106 41.3182 29.2727V30.8182C41.3182 32.1364 41.5455 33.2538 42 34.1705C42.4621 35.0795 43.1023 35.7727 43.9205 36.25C44.7386 36.7197 45.6894 36.9545 46.7727 36.9545C47.4773 36.9545 48.1136 36.8561 48.6818 36.6591C49.2576 36.4545 49.7538 36.1515 50.1705 35.75C50.5871 35.3409 50.9091 34.8333 51.1364 34.2273L53.7273 34.9545C53.4545 35.8333 52.9962 36.6061 52.3523 37.2727C51.7083 37.9318 50.9129 38.447 49.9659 38.8182C49.0189 39.1818 47.9545 39.3636 46.7727 39.3636ZM60.7614 28.5V39H58.0795V21.5455H60.6705V24.2727H60.8977C61.3068 23.3864 61.928 22.6742 62.7614 22.1364C63.5947 21.5909 64.6705 21.3182 65.9886 21.3182C67.1705 21.3182 68.2045 21.5606 69.0909 22.0455C69.9773 22.5227 70.6667 23.25 71.1591 24.2273C71.6515 25.197 71.8977 26.4242 71.8977 27.9091V39H69.2159V28.0909C69.2159 26.7197 68.8598 25.6515 68.1477 24.8864C67.4356 24.1136 66.4583 23.7273 65.2159 23.7273C64.3598 23.7273 63.5947 23.9129 62.9205 24.2841C62.2538 24.6553 61.7273 25.197 61.3409 25.9091C60.9545 26.6212 60.7614 27.4848 60.7614 28.5ZM84.3892 21.5455V23.8182H75.3438V21.5455H84.3892ZM77.9801 17.3636H80.6619V34C80.6619 34.7576 80.7718 35.3258 80.9915 35.7045C81.2188 36.0758 81.5066 36.3258 81.8551 36.4545C82.2112 36.5758 82.5862 36.6364 82.9801 36.6364C83.2756 36.6364 83.518 36.6212 83.7074 36.5909C83.8968 36.553 84.0483 36.5227 84.1619 36.5L84.7074 38.9091C84.5256 38.9773 84.2718 39.0455 83.946 39.1136C83.6203 39.1894 83.2074 39.2273 82.7074 39.2273C81.9498 39.2273 81.2074 39.0644 80.4801 38.7386C79.7604 38.4129 79.1619 37.9167 78.6847 37.25C78.215 36.5833 77.9801 35.7424 77.9801 34.7273V17.3636ZM102.56 39.4091C101.454 39.4091 100.45 39.2008 99.5483 38.7841C98.6468 38.3598 97.9309 37.75 97.4006 36.9545C96.8703 36.1515 96.6051 35.1818 96.6051 34.0455C96.6051 33.0455 96.8021 32.2348 97.196 31.6136C97.59 30.9848 98.1165 30.4924 98.7756 30.1364C99.4347 29.7803 100.162 29.5152 100.957 29.3409C101.76 29.1591 102.567 29.0152 103.378 28.9091C104.438 28.7727 105.298 28.6705 105.957 28.6023C106.624 28.5265 107.109 28.4015 107.412 28.2273C107.723 28.053 107.878 27.75 107.878 27.3182V27.2273C107.878 26.1061 107.571 25.2348 106.957 24.6136C106.351 23.9924 105.431 23.6818 104.196 23.6818C102.916 23.6818 101.912 23.9621 101.185 24.5227C100.457 25.0833 99.946 25.6818 99.6506 26.3182L97.1051 25.4091C97.5597 24.3485 98.1657 23.5227 98.9233 22.9318C99.6884 22.3333 100.522 21.9167 101.423 21.6818C102.332 21.4394 103.226 21.3182 104.105 21.3182C104.666 21.3182 105.31 21.3864 106.037 21.5227C106.772 21.6515 107.48 21.9205 108.162 22.3295C108.851 22.7386 109.423 23.3561 109.878 24.1818C110.332 25.0076 110.56 26.1136 110.56 27.5V39H107.878V36.6364H107.741C107.56 37.0152 107.257 37.4205 106.832 37.8523C106.408 38.2841 105.844 38.6515 105.139 38.9545C104.435 39.2576 103.575 39.4091 102.56 39.4091ZM102.969 37C104.029 37 104.923 36.7917 105.651 36.375C106.385 35.9583 106.938 35.4205 107.31 34.7614C107.688 34.1023 107.878 33.4091 107.878 32.6818V30.2273C107.764 30.3636 107.514 30.4886 107.128 30.6023C106.749 30.7083 106.31 30.803 105.81 30.8864C105.317 30.9621 104.836 31.0303 104.366 31.0909C103.904 31.1439 103.529 31.1894 103.241 31.2273C102.545 31.3182 101.893 31.4659 101.287 31.6705C100.688 31.8674 100.204 32.1667 99.8324 32.5682C99.4688 32.9621 99.2869 33.5 99.2869 34.1818C99.2869 35.1136 99.6316 35.8182 100.321 36.2955C101.018 36.7652 101.901 37 102.969 37ZM118.136 28.5V39H115.455V21.5455H118.045V24.2727H118.273C118.682 23.3864 119.303 22.6742 120.136 22.1364C120.97 21.5909 122.045 21.3182 123.364 21.3182C124.545 21.3182 125.58 21.5606 126.466 22.0455C127.352 22.5227 128.042 23.25 128.534 24.2273C129.027 25.197 129.273 26.4242 129.273 27.9091V39H126.591V28.0909C126.591 26.7197 126.235 25.6515 125.523 24.8864C124.811 24.1136 123.833 23.7273 122.591 23.7273C121.735 23.7273 120.97 23.9129 120.295 24.2841C119.629 24.6553 119.102 25.197 118.716 25.9091C118.33 26.6212 118.136 27.4848 118.136 28.5ZM140.764 39.3636C139.31 39.3636 138.026 38.9962 136.912 38.2614C135.798 37.5189 134.927 36.4735 134.298 35.125C133.67 33.7689 133.355 32.1667 133.355 30.3182C133.355 28.4848 133.67 26.8939 134.298 25.5455C134.927 24.197 135.802 23.1553 136.923 22.4205C138.045 21.6856 139.34 21.3182 140.81 21.3182C141.946 21.3182 142.844 21.5076 143.503 21.8864C144.17 22.2576 144.677 22.6818 145.026 23.1591C145.382 23.6288 145.658 24.0152 145.855 24.3182H146.082V15.7273H148.764V39H146.173V36.3182H145.855C145.658 36.6364 145.378 37.0379 145.014 37.5227C144.651 38 144.132 38.428 143.457 38.8068C142.783 39.178 141.885 39.3636 140.764 39.3636ZM141.128 36.9545C142.204 36.9545 143.113 36.6742 143.855 36.1136C144.598 35.5455 145.162 34.7614 145.548 33.7614C145.935 32.7538 146.128 31.5909 146.128 30.2727C146.128 28.9697 145.938 27.8295 145.56 26.8523C145.181 25.8674 144.62 25.1023 143.878 24.5568C143.135 24.0038 142.219 23.7273 141.128 23.7273C139.991 23.7273 139.045 24.0189 138.287 24.6023C137.537 25.178 136.973 25.9621 136.594 26.9545C136.223 27.9394 136.037 29.0455 136.037 30.2727C136.037 31.5152 136.226 32.6439 136.605 33.6591C136.991 34.6667 137.56 35.4697 138.31 36.0682C139.067 36.6591 140.007 36.9545 141.128 36.9545ZM163.412 39V15.7273H171.276C173.094 15.7273 174.586 16.0379 175.753 16.6591C176.92 17.2727 177.783 18.1174 178.344 19.1932C178.904 20.2689 179.185 21.4924 179.185 22.8636C179.185 24.2348 178.904 25.4508 178.344 26.5114C177.783 27.572 176.923 28.4053 175.764 29.0114C174.605 29.6098 173.124 29.9091 171.321 29.9091H164.957V27.3636H171.23C172.473 27.3636 173.473 27.1818 174.23 26.8182C174.995 26.4545 175.548 25.9394 175.889 25.2727C176.238 24.5985 176.412 23.7955 176.412 22.8636C176.412 21.9318 176.238 21.1174 175.889 20.4205C175.541 19.7235 174.984 19.1856 174.219 18.8068C173.454 18.4205 172.442 18.2273 171.185 18.2273H166.23V39H163.412ZM174.366 28.5455L180.094 39H176.821L171.185 28.5455H174.366ZM183.517 39V21.5455H186.199V39H183.517ZM184.881 18.6364C184.358 18.6364 183.907 18.4583 183.528 18.1023C183.157 17.7462 182.972 17.3182 182.972 16.8182C182.972 16.3182 183.157 15.8902 183.528 15.5341C183.907 15.178 184.358 15 184.881 15C185.403 15 185.85 15.178 186.222 15.5341C186.6 15.8902 186.79 16.3182 186.79 16.8182C186.79 17.3182 186.6 17.7462 186.222 18.1023C185.85 18.4583 185.403 18.6364 184.881 18.6364ZM197.702 39.3636C196.247 39.3636 194.963 38.9962 193.849 38.2614C192.736 37.5189 191.865 36.4735 191.236 35.125C190.607 33.7689 190.293 32.1667 190.293 30.3182C190.293 28.4848 190.607 26.8939 191.236 25.5455C191.865 24.197 192.74 23.1553 193.861 22.4205C194.982 21.6856 196.277 21.3182 197.747 21.3182C198.884 21.3182 199.781 21.5076 200.44 21.8864C201.107 22.2576 201.615 22.6818 201.963 23.1591C202.319 23.6288 202.596 24.0152 202.793 24.3182H203.02V15.7273H205.702V39H203.111V36.3182H202.793C202.596 36.6364 202.315 37.0379 201.952 37.5227C201.588 38 201.069 38.428 200.395 38.8068C199.721 39.178 198.823 39.3636 197.702 39.3636ZM198.065 36.9545C199.141 36.9545 200.05 36.6742 200.793 36.1136C201.535 35.5455 202.099 34.7614 202.486 33.7614C202.872 32.7538 203.065 31.5909 203.065 30.2727C203.065 28.9697 202.876 27.8295 202.497 26.8523C202.118 25.8674 201.558 25.1023 200.815 24.5568C200.073 24.0038 199.156 23.7273 198.065 23.7273C196.929 23.7273 195.982 24.0189 195.224 24.6023C194.474 25.178 193.91 25.9621 193.531 26.9545C193.16 27.9394 192.974 29.0455 192.974 30.2727C192.974 31.5152 193.164 32.6439 193.543 33.6591C193.929 34.6667 194.497 35.4697 195.247 36.0682C196.005 36.6591 196.944 36.9545 198.065 36.9545ZM218.304 39.3636C216.622 39.3636 215.171 38.9924 213.952 38.25C212.74 37.5 211.804 36.4545 211.145 35.1136C210.493 33.7652 210.168 32.197 210.168 30.4091C210.168 28.6212 210.493 27.0455 211.145 25.6818C211.804 24.3106 212.721 23.2424 213.895 22.4773C215.077 21.7045 216.455 21.3182 218.031 21.3182C218.94 21.3182 219.838 21.4697 220.724 21.7727C221.611 22.0758 222.418 22.5682 223.145 23.25C223.872 23.9242 224.452 24.8182 224.884 25.9318C225.315 27.0455 225.531 28.4167 225.531 30.0455V31.1818H212.077V28.8636H222.804C222.804 27.8788 222.607 27 222.213 26.2273C221.827 25.4545 221.274 24.8447 220.554 24.3977C219.842 23.9508 219.001 23.7273 218.031 23.7273C216.963 23.7273 216.039 23.9924 215.259 24.5227C214.486 25.0455 213.891 25.7273 213.474 26.5682C213.058 27.4091 212.849 28.3106 212.849 29.2727V30.8182C212.849 32.1364 213.077 33.2538 213.531 34.1705C213.993 35.0795 214.634 35.7727 215.452 36.25C216.27 36.7197 217.221 36.9545 218.304 36.9545C219.009 36.9545 219.645 36.8561 220.213 36.6591C220.789 36.4545 221.285 36.1515 221.702 35.75C222.118 35.3409 222.44 34.8333 222.668 34.2273L225.259 34.9545C224.986 35.8333 224.527 36.6061 223.884 37.2727C223.24 37.9318 222.444 38.447 221.497 38.8182C220.55 39.1818 219.486 39.3636 218.304 39.3636Z" fill="url(#paint3_linear_0_1)" fill-opacity="0.2"/>
<defs>
<linearGradient id="paint0_linear_0_1" x1="32.5" y1="53" x2="9.84932" y2="44.4693" gradientUnits="userSpaceOnUse">
<stop offset="0.00411101" stop-color="white" stop-opacity="0"/>
<stop offset="0.89578" stop-color="white"/>
</linearGradient>
<linearGradient id="paint1_linear_0_1" x1="17.6198" y1="0" x2="17.6198" y2="53.1135" gradientUnits="userSpaceOnUse">
<stop offset="0.185426" stop-color="white"/>
<stop offset="1" stop-color="white" stop-opacity="0"/>
</linearGradient>
<linearGradient id="paint2_linear_0_1" x1="22" y1="7" x2="21.8015" y2="24.7663" gradientUnits="userSpaceOnUse">
<stop stop-color="white"/>
<stop offset="1" stop-color="white" stop-opacity="0"/>
</linearGradient>
<linearGradient id="paint3_linear_0_1" x1="218" y1="46" x2="57" y2="8" gradientUnits="userSpaceOnUse">
<stop stop-color="white" stop-opacity="0"/>
<stop offset="1" stop-color="white"/>
</linearGradient>
</defs>
</svg>
