<svg width="35" height="54" viewBox="0 0 35 54" fill="none" xmlns="http://www.w3.org/2000/svg">
<path fill-rule="evenodd" clip-rule="evenodd" d="M21.006 28.1927C22.4788 27.5311 24.2429 28.1728 24.9464 29.6261L34.3107 48.9727C35.0141 50.426 34.3904 52.1404 32.9176 52.8021C31.4448 53.4637 29.6806 52.8219 28.9772 51.3686L19.6129 32.0221C18.9095 30.5688 19.5331 28.8543 21.006 28.1927Z" fill="black"/>
<path fill-rule="evenodd" clip-rule="evenodd" d="M21.006 28.1927C22.4788 27.5311 24.2429 28.1728 24.9464 29.6261L34.3107 48.9727C35.0141 50.426 34.3904 52.1404 32.9176 52.8021C31.4448 53.4637 29.6806 52.8219 28.9772 51.3686L19.6129 32.0221C18.9095 30.5688 19.5331 28.8543 21.006 28.1927Z" fill="url(#paint0_linear_114_179)" fill-opacity="0.35"/>
<path d="M0.584377 4.33647C0.584377 1.94164 2.52577 0.000252648 4.92059 0.000252648C5.77588 0.000252648 6.46924 0.693605 6.46924 1.5489V51.5649C6.46924 52.4202 5.77588 53.1135 4.92059 53.1135C2.52577 53.1135 0.584377 51.1721 0.584377 48.7773V4.33647Z" fill="black"/>
<path d="M0.584377 4.33647C0.584377 1.94164 2.52577 0.000252648 4.92059 0.000252648C5.77588 0.000252648 6.46924 0.693605 6.46924 1.5489V51.5649C6.46924 52.4202 5.77588 53.1135 4.92059 53.1135C2.52577 53.1135 0.584377 51.1721 0.584377 48.7773V4.33647Z" fill="url(#paint1_linear_114_179)" fill-opacity="0.35"/>
<path d="M8.94774 6.66492C8.94774 2.98398 11.9317 0 15.6127 0H22.2721C29.1112 0 34.6553 5.54413 34.6553 12.3832C34.6553 19.2222 29.1112 24.7663 22.2721 24.7663H15.6127C11.9317 24.7663 8.94774 21.7823 8.94774 18.1014V6.66492Z" fill="#E60B0B"/>
<path d="M8.94774 6.66492C8.94774 2.98398 11.9317 0 15.6127 0H22.2721C29.1112 0 34.6553 5.54413 34.6553 12.3832C34.6553 19.2222 29.1112 24.7663 22.2721 24.7663H15.6127C11.9317 24.7663 8.94774 21.7823 8.94774 18.1014V6.66492Z" fill="url(#paint2_linear_114_179)" fill-opacity="0.35"/>
<defs>
<linearGradient id="paint0_linear_114_179" x1="32.5" y1="53" x2="9.84932" y2="44.4693" gradientUnits="userSpaceOnUse">
<stop offset="0.00411101" stop-color="white" stop-opacity="0"/>
<stop offset="0.89578" stop-color="white"/>
</linearGradient>
<linearGradient id="paint1_linear_114_179" x1="17.6198" y1="0" x2="17.6198" y2="53.1135" gradientUnits="userSpaceOnUse">
<stop offset="0.185426" stop-color="white"/>
<stop offset="1" stop-color="white" stop-opacity="0"/>
</linearGradient>
<linearGradient id="paint2_linear_114_179" x1="22" y1="7" x2="21.8015" y2="24.7663" gradientUnits="userSpaceOnUse">
<stop stop-color="white"/>
<stop offset="1" stop-color="white" stop-opacity="0"/>
</linearGradient>
</defs>
</svg>
