<svg width="40" height="46" viewBox="0 0 40 46" fill="none" xmlns="http://www.w3.org/2000/svg">
<path d="M2.35713 19.2685C2.35713 9.89979 10.3527 2.30396 20.2143 2.30396C30.0759 2.30396 38.0714 9.89979 38.0714 19.2685C38.0714 28.5644 32.3727 39.4144 23.4799 43.2915C22.4578 43.7382 21.3429 43.9697 20.2143 43.9697C19.0856 43.9697 17.9708 43.7382 16.9486 43.2915C8.05579 39.4123 2.35713 28.5665 2.35713 19.2706V19.2685Z" stroke="#000" stroke-width="3"/>
<path d="M20.2143 25.2206C23.9126 25.2206 26.9107 22.4224 26.9107 18.9706C26.9107 15.5188 23.9126 12.7206 20.2143 12.7206C16.5159 12.7206 13.5179 15.5188 13.5179 18.9706C13.5179 22.4224 16.5159 25.2206 20.2143 25.2206Z" stroke="#000" stroke-width="3"/>
</svg>
