<svg width="40" height="46" viewBox="0 0 40 46" fill="none" xmlns="http://www.w3.org/2000/svg">
<path d="M2.35713 18.9646C2.35713 9.59583 10.3527 2 20.2143 2C30.0759 2 38.0714 9.59583 38.0714 18.9646C38.0714 28.2604 32.3727 39.1104 23.4799 42.9875C22.4578 43.4342 21.3429 43.6658 20.2143 43.6658C19.0856 43.6658 17.9708 43.4342 16.9486 42.9875C8.05579 39.1083 2.35713 28.2625 2.35713 18.9667V18.9646Z" stroke="#1A1A1A" stroke-width="3"/>
<path d="M20.2143 24.9167C23.9126 24.9167 26.9107 22.1184 26.9107 18.6667C26.9107 15.2149 23.9126 12.4167 20.2143 12.4167C16.5159 12.4167 13.5179 15.2149 13.5179 18.6667C13.5179 22.1184 16.5159 24.9167 20.2143 24.9167Z" stroke="#1A1A1A" stroke-width="3"/>
</svg>
