<svg width="38" height="33" viewBox="0 0 38 33" fill="none" xmlns="http://www.w3.org/2000/svg">
<path fill-rule="evenodd" clip-rule="evenodd" d="M27.0718 8C27.0718 12.1421 23.474 15.5 19.036 15.5C14.598 15.5 11.0003 12.1421 11.0003 8C11.0003 3.85786 14.598 0.5 19.036 0.5C23.474 0.5 27.0718 3.85786 27.0718 8ZM24.3932 8C24.3932 10.7614 21.9947 13 19.036 13C16.0774 13 13.6789 10.7614 13.6789 8C13.6789 5.23858 16.0774 3 19.036 3C21.9947 3 24.3932 5.23858 24.3932 8Z" fill="black"/>
<path d="M19.036 19.25C10.365 19.25 2.97703 24.0355 0.162773 30.7401C0.848347 31.3754 1.57055 31.9765 2.32616 32.5401C4.4218 26.3846 10.9959 21.75 19.036 21.75C27.0762 21.75 33.6503 26.3846 35.7459 32.5401C36.5015 31.9765 37.2237 31.3755 37.9093 30.7401C35.0951 24.0355 27.7071 19.25 19.036 19.25Z" fill="black"/>
</svg>
