<svg width="37" height="38" viewBox="0 0 37 38" fill="none" xmlns="http://www.w3.org/2000/svg">
<path d="M34.1159 37.75L21.5167 24.625C20.5168 25.4583 19.3668 26.1181 18.0669 26.6042C16.767 27.0903 15.3838 27.3333 13.9172 27.3333C10.2841 27.3333 7.20927 26.0226 4.69276 23.401C2.17625 20.7795 0.917999 17.5764 0.917999 13.7917C0.917999 10.0069 2.17625 6.80382 4.69276 4.18229C7.20927 1.56076 10.2841 0.25 13.9172 0.25C17.5503 0.25 20.6251 1.56076 23.1416 4.18229C25.6581 6.80382 26.9164 10.0069 26.9164 13.7917C26.9164 15.3194 26.683 16.7604 26.2164 18.1146C25.7498 19.4687 25.1165 20.6667 24.3165 21.7083L36.9157 34.8333L34.1159 37.75ZM13.9172 23.1667C16.417 23.1667 18.5419 22.2552 20.2918 20.4323C22.0417 18.6094 22.9166 16.3958 22.9166 13.7917C22.9166 11.1875 22.0417 8.97396 20.2918 7.15104C18.5419 5.32812 16.417 4.41667 13.9172 4.41667C11.4173 4.41667 9.29247 5.32812 7.54258 7.15104C5.79269 8.97396 4.91775 11.1875 4.91775 13.7917C4.91775 16.3958 5.79269 18.6094 7.54258 20.4323C9.29247 22.2552 11.4173 23.1667 13.9172 23.1667Z" fill="#1D1B20"/>
</svg>
